<svg width="494" height="192" viewBox="0 0 494 192" fill="none" xmlns="http://www.w3.org/2000/svg">
<g clip-path="url(#clip0_10395_642)">
<path d="M344.764 154.72V155.22H345.264H432.726V186.969V187.469H433.226H470.271H470.771V186.969V155.22H493H493.5V154.72V123.636V123.136H493H470.771V3.5083V3.0083H470.271H448.58H448.08H433.941H433.441H421.772H421.497L421.349 3.24056L344.841 123.905L344.764 124.028V124.173V154.72ZM432.785 46.2902H433.441V123.136H384.778V122.347L432.785 46.2902Z" stroke="white"/>
<path d="M206.489 11.6919C195.36 19.0997 186.801 29.9027 180.804 44.0724L180.803 44.0741C174.865 58.2448 171.905 75.3642 171.905 95.417C171.845 115.53 174.775 132.768 180.713 147.118V147.119C186.71 161.467 195.267 172.449 206.396 180.036L206.397 180.037C217.586 187.626 230.93 191.44 246.406 191.5H246.408C261.883 191.5 275.199 187.716 286.33 180.126C297.459 172.539 305.986 161.557 311.923 147.209C317.921 132.86 320.91 115.591 320.91 95.4192C320.97 75.3653 318.01 58.2741 312.012 44.1613C306.014 29.9916 297.425 19.1595 286.237 11.6924C275.107 4.22394 261.822 0.5 246.408 0.5C230.993 0.5 217.679 4.22396 206.49 11.6917M280.359 95.4177V95.4191C280.418 116.527 277.318 132.275 271.122 142.73C264.93 153.179 256.697 158.341 246.408 158.341C239.552 158.341 233.587 156.058 228.489 151.483C223.387 146.845 219.399 139.889 216.552 130.568C213.766 121.194 212.367 109.482 212.367 95.4178C212.427 74.6099 215.586 59.0711 221.781 48.7347C227.973 38.4045 236.176 33.301 246.408 33.301C253.264 33.301 259.199 35.5845 264.237 40.1585L264.239 40.1604C269.339 44.7383 273.298 51.6039 276.085 60.8055L276.086 60.8083C278.93 70.0012 280.359 81.5331 280.359 95.4177Z" stroke="white"/>
<path d="M0.5 154.72V155.22H1H88.4619V186.969V187.469H88.9619H126.008H126.508V186.969V155.22H148.737H149.237V154.72V123.636V123.136H148.737H126.508V3.50827V3.00827H126.008H104.316H103.816H89.6777H89.1777H77.508H77.233L77.0857 3.24053L0.577728 123.905L0.5 124.028V124.173V154.72ZM88.5217 46.2902H89.1777V123.136H40.5146V122.347L88.5217 46.2902Z" stroke="white"/>
</g>
<defs>
<clipPath id="clip0_10395_642">
<rect width="494" height="192" fill="white"/>
</clipPath>
</defs>
</svg>
